Coordinates
version=1
nRows=26
nColumns=24
inDegrees=yes

Units are S.I. units (second, meters, Newtons, ...)
Angles are in degrees.

endheader
time	pelvis_tilt	pelvis_list	pelvis_rotation	pelvis_tx	pelvis_ty	pelvis_tz	hip_flexion_r	hip_adduction_r	hip_rotation_r	knee_angle_r	ankle_angle_r	subtalar_angle_r	mtp_angle_r	hip_flexion_l	hip_adduction_l	hip_rotation_l	knee_angle_l	ankle_angle_l	subtalar_angle_l	mtp_angle_l	lumbar_extension	lumbar_bending	lumbar_rotation
      3.94000000	     -3.62282056	      9.12520281	      0.81220213	     -0.63130222	     -0.01667187	     -0.14643938	     29.66439213	    -10.02531018	     -1.23032133	    -68.79735429	    -10.91473414	      4.94645408	     21.56181911	      7.58748659	     17.39440197	      8.18108557	    -12.08207485	      5.30634698	     -0.64091516	    -11.71684762	      5.07975483	    -11.13585398	     -1.96065589
      3.94500000	     -3.50537120	      8.90974581	      0.89835700	     -0.62529148	     -0.01607740	     -0.14640015	     30.19093331	     -9.81806874	     -1.42340267	    -67.93815220	    -10.36902443	      4.63703062	     21.23462101	      6.69665712	     17.15090131	      8.57614751	    -11.65723493	      5.59063534	     -0.65102598	    -12.03569534	      4.87854038	    -10.91004507	     -2.10555628
      3.95000000	     -3.46714724	      8.66294330	      0.96684885	     -0.61931953	     -0.01564009	     -0.14633494	     30.78636317	     -9.54992396	     -1.56490052	    -67.00296292	     -9.88697793	      4.37808834	     20.96104047	      5.93747383	     16.86446018	      8.85527663	    -11.28598684	      5.91856741	     -0.61098137	    -12.17908653	      4.75950344	    -10.65524788	     -2.26596242
      3.95500000	     -3.37604394	      8.42837829	      1.07640343	     -0.61336294	     -0.01517643	     -0.14634580	     31.26625641	     -9.33314619	     -1.77573570	    -65.97637061	     -9.40638331	      4.06219796	     20.55554809	      5.12477792	     16.58857822	      9.14581885	    -10.92375719	      6.20374270	     -0.49654267	    -12.31618293	      4.57016413	    -10.40551838	     -2.48325593
      3.96000000	     -3.29565226	      8.20110765	      1.19504927	     -0.60738351	     -0.01481179	     -0.14636499	     31.73019713	     -9.13920415	     -2.00849410	    -64.89621086	     -8.92367796	      3.78798233	     20.06283665	      4.33294623	     16.31642675	      9.41254517	    -10.57614337	      6.52259962	     -0.35744331	    -12.41869033	      4.39596742	    -10.16649496	     -2.68489381
      3.96500000	     -3.23687477	      7.97129988	      1.32076445	     -0.60141661	     -0.01453674	     -0.14637071	     32.18650487	     -8.94627789	     -2.24537370	    -63.74685186	     -8.44886328	      3.56131300	     19.55262604	      3.58581531	     16.03694794	      9.65437883	    -10.25803612	      6.85146775	     -0.20664063	    -12.47350078	      4.24202867	     -9.93223830	     -2.89608664
      3.97000000	     -3.18954133	      7.74547478	      1.45114809	     -0.59543406	     -0.01434256	     -0.14636434	     32.62211563	     -8.76320801	     -2.48575294	    -62.52952482	     -7.98645146	      3.38434891	     19.04717545	      2.86837152	     15.75936235	      9.88339341	     -9.96764414	      7.18518306	     -0.06603172	    -12.49072290	      4.10648494	     -9.70764074	     -3.10981975
      3.97500000	     -3.13588349	      7.52650441	      1.59035537	     -0.58947129	     -0.01420820	     -0.14636440	     33.02305070	     -8.59968969	     -2.74214369	    -61.25646077	     -7.51644952	      3.26259013	     18.49429641	      2.15336996	     15.48524373	     10.13572436	     -9.68875580	      7.50648763	      0.07985228	    -12.49775612	      3.95436505	     -9.48272230	     -3.32117839
      3.98000000	     -3.10688616	      7.30977182	      1.72149822	     -0.58351453	     -0.01418575	     -0.14634640	     33.43196098	     -8.43897455	     -2.98924003	    -59.93087119	     -7.05490842	      3.22051662	     17.99634596	      1.48047775	     15.21494312	     10.38164505	     -9.42766841	      7.83617942	      0.16947976	    -12.49201206	      3.82827062	     -9.26283739	     -3.53971100
      3.98500000	     -3.08938403	      7.09450762	      1.85005524	     -0.57757986	     -0.01423701	     -0.14629780	     33.82256198	     -8.27385402	     -3.21632493	    -58.53557264	     -6.59905651	      3.24226589	     17.57546241	      0.85119141	     14.94901238	     10.63155643	     -9.21891167	      8.15984871	      0.20171656	    -12.48064469	      3.71010101	     -9.04813939	     -3.76149382
      3.99000000	     -3.15954574	      6.89526629	      1.94291172	     -0.57166569	     -0.01443009	     -0.14617108	     34.30256583	     -8.08760219	     -3.34625327	    -57.07936796	     -6.22537901	      3.33606818	     17.35889623	      0.34115428	     14.69869804	     10.85058414	     -9.03290707	      8.44776604	      0.20933179	    -12.45208165	      3.69306440	     -8.84628067	     -3.87780168
      3.99500000	     -3.06830296	      6.68104481	      2.12184045	     -0.56577914	     -0.01451132	     -0.14610573	     34.53359462	     -7.96865485	     -3.65248558	    -55.56266818	     -5.74201115	      3.50744824	     16.97589904	     -0.35435852	     14.42863765	     11.18758382	     -8.85054551	      8.76032013	      0.16830164	    -12.46743480	      3.47109782	     -8.65539866	     -4.21360607
      4.00000000	     -3.06684847	      6.48158408	      2.24345710	     -0.55990025	     -0.01474324	     -0.14593995	     34.86134170	     -7.81291190	     -3.84091978	    -54.00436834	     -5.29004632	      3.78563381	     16.68873895	     -0.92491561	     14.17556807	     11.48757673	     -8.69922856	      9.04618867	      0.06520590	    -12.50471620	      3.35238417	     -8.47209166	     -4.42344694
      4.00500000	     -3.15560872	      6.30264283	      2.32620296	     -0.55405698	     -0.01511682	     -0.14569937	     35.28491068	     -7.63720219	     -3.92176496	    -52.39719017	     -4.95374856	      4.08264892	     16.56083579	     -1.36787841	     13.94592936	     11.70407033	     -8.57907303	      9.32670292	     -0.01060016	    -12.49955187	      3.34105878	     -8.30423450	     -4.55038377
      4.01000000	     -3.09227752	      6.12076513	      2.49798979	     -0.54825385	     -0.01538286	     -0.14557167	     35.46648461	     -7.54354713	     -4.14894522	    -50.72864489	     -4.44923912	      4.52901147	     16.42546027	     -1.97747745	     13.71281496	     12.05039737	     -8.48039915	      9.61580862	     -0.15051406	    -12.55964890	      3.13071227	     -8.14911758	     -4.86845500
      4.01500000	     -3.09326551	      5.95363671	      2.61497000	     -0.54247088	     -0.01574467	     -0.14533556	     35.71216424	     -7.41110953	     -4.25802685	    -49.02198055	     -4.02376481	      5.01149349	     16.31386707	     -2.50320883	     13.49150769	     12.34527346	     -8.38658483	      9.87560826	     -0.29921845	    -12.64858756	      2.99769351	     -8.00694917	     -5.09663289
      4.02000000	     -3.12067581	      5.79934943	      2.73197698	     -0.53673652	     -0.01619316	     -0.14509630	     35.96249330	     -7.29203819	     -4.34175861	    -47.27573895	     -3.60927725	      5.51688734	     16.27541483	     -2.96856054	     13.28882305	     12.57557215	     -8.34125378	     10.17071309	     -0.41479550	    -12.70386646	      2.88378282	     -7.87294641	     -5.30187454
      4.02500000	     -3.12841693	      5.66100287	      2.84866208	     -0.53103437	     -0.01663654	     -0.14483502	     36.15821373	     -7.18335531	     -4.38079030	    -45.48900563	     -3.21738109	      6.07336127	     16.26004512	     -3.44797073	     13.09619903	     12.78564471	     -8.30318166	     10.45276712	     -0.48190002	    -12.77565142	      2.73852400	     -7.75950715	     -5.53901897
      4.03000000	     -3.14564783	      5.53582381	      2.95991180	     -0.52535647	     -0.01713421	     -0.14456318	     36.33515900	     -7.08601069	     -4.39723215	    -43.66904191	     -2.82834290	      6.63241644	     16.27049452	     -3.89542434	     12.91887096	     12.92906157	     -8.29819584	     10.75965853	     -0.49681750	    -12.82162605	      2.59671259	     -7.65824796	     -5.75546898
      4.03500000	     -3.17353195	      5.42273426	      3.06162552	     -0.51969021	     -0.01768332	     -0.14428611	     36.49506795	     -6.99832732	     -4.39155413	    -41.82135212	     -2.44402430	      7.18352028	     16.29360161	     -4.31378391	     12.75480187	     13.00090382	     -8.31960762	     11.08308026	     -0.45627511	    -12.82407728	      2.46546499	     -7.56279116	     -5.94798588
      4.04000000	     -3.23851901	      5.32481453	      3.14671214	     -0.51404798	     -0.01827404	     -0.14400711	     36.67079826	     -6.90932626	     -4.30222844	    -39.95266986	     -2.14577654	      7.71972512	     16.28857569	     -4.68763680	     12.60468652	     13.03594244	     -8.33562444	     11.38273454	     -0.36373080	    -12.78800598	      2.37354081	     -7.47497024	     -6.10936878
      4.04500000	     -3.18670003	      5.24478331	      3.25467486	     -0.50843904	     -0.01878985	     -0.14372421	     36.67191305	     -6.86098447	     -4.26068322	    -38.06238561	     -1.73949056	      8.26158168	     16.30027908	     -5.16658260	     12.46039642	     12.94851911	     -8.39339020	     11.74622004	     -0.09820650	    -12.73170110	      2.12973036	     -7.41789264	     -6.36862722
      4.05000000	     -3.22258951	      5.16627389	      3.32622270	     -0.50279326	     -0.01939138	     -0.14345177	     36.74987016	     -6.78941750	     -4.12310257	    -36.16753363	     -1.46139073	      8.75319132	     16.24547560	     -5.55510067	     12.32186521	     12.84228438	     -8.43681539	     12.08740919	      0.18759340	    -12.64717458	      2.00381983	     -7.33847465	     -6.52178764
      4.05500000	     -3.15233240	      5.10412466	      3.40607370	     -0.49719531	     -0.01991949	     -0.14309741	     36.67540130	     -6.73360647	     -3.99993759	    -34.26959020	     -1.11220192	      9.18249161	     16.14427195	     -6.02434964	     12.17854994	     12.51780575	     -8.53331693	     12.52228496	      0.74844442	    -12.50280887	      1.73548831	     -7.29831017	     -6.76559560
      4.06000000	     -3.13881128	      5.05036067	      3.45486942	     -0.49155681	     -0.02051182	     -0.14274794	     36.64873450	     -6.66696547	     -3.80235155	    -32.39316903	     -0.84034331	      9.54357378	     15.95305224	     -6.42674580	     12.04609970	     12.13453830	     -8.64040469	     12.95874088	      1.39099050	    -12.33313286	      1.54334440	     -7.25248611	     -6.94166168
      4.06500000	     -3.12819762	      5.01476072	      3.49523267	     -0.48592064	     -0.02112413	     -0.14239229	     36.61240741	     -6.61405531	     -3.56299661	    -30.55585887	     -0.59290087	      9.85758609	     15.68918059	     -6.81821232	     11.92759651	     11.69718612	     -8.76188005	     13.39754992	      2.12454457	    -12.13489848	      1.35192707	     -7.22127394	     -7.11746777
